{
  "accessors": [
    {
      "bufferView": 0,
      "componentType": 5125,
      "count": 600,
      "type": "SCALAR"
    },
    {
      "bufferView": 1,
      "componentType": 5126,
      "count": 121,
      "max": [
        583.843444824219,
        -1.52587890625e-05,
        583.843444824219
      ],
      "min": [
        -583.843444824219,
        -1.52587890625e-05,
        -583.843444824219
      ],
      "type": "VEC3"
    },
    {
      "bufferView": 2,
      "componentType": 5126,
      "count": 121,
      "type": "VEC3"
    },
    {
      "bufferView": 3,
      "componentType": 5126,
      "count": 121,
      "type": "VEC4"
    },
    {
      "bufferView": 4,
      "componentType": 5126,
      "count": 121,
      "type": "VEC2"
    },
    {
      "bufferView": 5,
      "componentType": 5125,
      "count": 10413,
      "type": "SCALAR"
    },
    {
      "bufferView": 6,
      "componentType": 5126,
      "count": 1979,
      "max": [
        167.398040771484,
        173.200653076172,
        380.824035644531
      ],
      "min": [
        -188.19075012207,
        -1.52587890625e-05,
        24.7571563720703
      ],
      "type": "VEC3"
    },
    {
      "bufferView": 7,
      "componentType": 5126,
      "count": 1979,
      "type": "VEC3"
    },
    {
      "bufferView": 8,
      "componentType": 5126,
      "count": 1979,
      "type": "VEC4"
    },
    {
      "bufferView": 9,
      "componentType": 5126,
      "count": 1979,
      "type": "VEC2"
    },
    {
      "bufferView": 10,
      "componentType": 5125,
      "count": 5415,
      "type": "SCALAR"
    },
    {
      "bufferView": 11,
      "componentType": 5126,
      "count": 1014,
      "max": [
        -50.0508728027344,
        100.930763244629,
        201.0
      ],
      "min": [
        -248.194000244141,
        -1.52587890625e-05,
        -72.6363677978516
      ],
      "type": "VEC3"
    },
    {
      "bufferView": 12,
      "componentType": 5126,
      "count": 1014,
      "type": "VEC3"
    },
    {
      "bufferView": 13,
      "componentType": 5126,
      "count": 1014,
      "type": "VEC4"
    },
    {
      "bufferView": 14,
      "componentType": 5126,
      "count": 1014,
      "type": "VEC2"
    },
    {
      "bufferView": 15,
      "componentType": 5125,
      "count": 20475,
      "type": "SCALAR"
    },
    {
      "bufferView": 16,
      "componentType": 5126,
      "count": 3757,
      "max": [
        194.475875854492,
        257.811096191406,
        80.4655914306641
      ],
      "min": [
        -173.684722900391,
        -0.0005950927734375,
        -380.413726806641
      ],
      "type": "VEC3"
    },
    {
      "bufferView": 17,
      "componentType": 5126,
      "count": 3757,
      "type": "VEC3"
    },
    {
      "bufferView": 18,
      "componentType": 5126,
      "count": 3757,
      "type": "VEC4"
    },
    {
      "bufferView": 19,
      "componentType": 5126,
      "count": 3757,
      "type": "VEC2"
    }
  ],
  "asset": {
    "generator": "Adobe Substance 3D Painter 10.1.2",
    "version": "2.0"
  },
  "bufferViews": [
    {
      "buffer": 0,
      "byteLength": 2400,
      "target": 34963
    },
    {
      "buffer": 0,
      "byteLength": 1452,
      "byteOffset": 2400,
      "target": 34962
    },
    {
      "buffer": 0,
      "byteLength": 1452,
      "byteOffset": 3852,
      "target": 34962
    },
    {
      "buffer": 0,
      "byteLength": 1936,
      "byteOffset": 5304,
      "target": 34962
    },
    {
      "buffer": 0,
      "byteLength": 968,
      "byteOffset": 7240,
      "target": 34962
    },
    {
      "buffer": 0,
      "byteLength": 41652,
      "byteOffset": 8208,
      "target": 34963
    },
    {
      "buffer": 0,
      "byteLength": 23748,
      "byteOffset": 49860,
      "target": 34962
    },
    {
      "buffer": 0,
      "byteLength": 23748,
      "byteOffset": 73608,
      "target": 34962
    },
    {
      "buffer": 0,
      "byteLength": 31664,
      "byteOffset": 97356,
      "target": 34962
    },
    {
      "buffer": 0,
      "byteLength": 15832,
      "byteOffset": 129020,
      "target": 34962
    },
    {
      "buffer": 0,
      "byteLength": 21660,
      "byteOffset": 144852,
      "target": 34963
    },
    {
      "buffer": 0,
      "byteLength": 12168,
      "byteOffset": 166512,
      "target": 34962
    },
    {
      "buffer": 0,
      "byteLength": 12168,
      "byteOffset": 178680,
      "target": 34962
    },
    {
      "buffer": 0,
      "byteLength": 16224,
      "byteOffset": 190848,
      "target": 34962
    },
    {
      "buffer": 0,
      "byteLength": 8112,
      "byteOffset": 207072,
      "target": 34962
    },
    {
      "buffer": 0,
      "byteLength": 81900,
      "byteOffset": 215184,
      "target": 34963
    },
    {
      "buffer": 0,
      "byteLength": 45084,
      "byteOffset": 297084,
      "target": 34962
    },
    {
      "buffer": 0,
      "byteLength": 45084,
      "byteOffset": 342168,
      "target": 34962
    },
    {
      "buffer": 0,
      "byteLength": 60112,
      "byteOffset": 387252,
      "target": 34962
    },
    {
      "buffer": 0,
      "byteLength": 30056,
      "byteOffset": 447364,
      "target": 34962
    }
  ],
  "buffers": [
    {
      "byteLength": 477420,
      "uri": "Mountain_v003.bin"
    }
  ],
  "images": [
    {
      "uri": "MAT_Ground_001_baseColor.png"
    },
    {
      "uri": "MAT_Ground_001_occlusionRoughnessMetallic.png"
    },
    {
      "uri": "MAT_Ground_001_normal.png"
    },
    {
      "uri": "MAT_Mountain_001_baseColor.png"
    },
    {
      "uri": "MAT_Mountain_001_occlusionRoughnessMetallic.png"
    },
    {
      "uri": "MAT_Mountain_001_normal.png"
    },
    {
      "uri": "MAT_Mountain_002_baseColor.png"
    },
    {
      "uri": "MAT_Mountain_002_occlusionRoughnessMetallic.png"
    },
    {
      "uri": "MAT_Mountain_002_normal.png"
    },
    {
      "uri": "MAT_Mountain_003_baseColor.png"
    },
    {
      "uri": "MAT_Mountain_003_occlusionRoughnessMetallic.png"
    },
    {
      "uri": "MAT_Mountain_003_normal.png"
    }
  ],
  "materials": [
    {
      "alphaMode": "OPAQUE",
      "name": "MAT_Ground_001",
      "normalTexture": {
        "index": 2
      },
      "occlusionTexture": {
        "index": 1
      },
      "pbrMetallicRoughness": {
        "baseColorTexture": {
          "index": 0
        },
        "metallicRoughnessTexture": {
          "index": 1
        }
      }
    },
    {
      "alphaMode": "OPAQUE",
      "name": "MAT_Mountain_001",
      "normalTexture": {
        "index": 5
      },
      "occlusionTexture": {
        "index": 4
      },
      "pbrMetallicRoughness": {
        "baseColorTexture": {
          "index": 3
        },
        "metallicRoughnessTexture": {
          "index": 4
        }
      }
    },
    {
      "alphaMode": "OPAQUE",
      "name": "MAT_Mountain_002",
      "normalTexture": {
        "index": 8
      },
      "occlusionTexture": {
        "index": 7
      },
      "pbrMetallicRoughness": {
        "baseColorTexture": {
          "index": 6
        },
        "metallicRoughnessTexture": {
          "index": 7
        }
      }
    },
    {
      "alphaMode": "OPAQUE",
      "name": "MAT_Mountain_003",
      "normalTexture": {
        "index": 11
      },
      "occlusionTexture": {
        "index": 10
      },
      "pbrMetallicRoughness": {
        "baseColorTexture": {
          "index": 9
        },
        "metallicRoughnessTexture": {
          "index": 10
        }
      }
    }
  ],
  "meshes": [
    {
      "name": "GEO_Ground_001",
      "primitives": [
        {
          "attributes": {
            "NORMAL": 2,
            "POSITION": 1,
            "TANGENT": 3,
            "TEXCOORD_0": 4
          },
          "indices": 0,
          "material": 0,
          "mode": 4
        }
      ]
    },
    {
      "name": "GEO_Mountain_002",
      "primitives": [
        {
          "attributes": {
            "NORMAL": 7,
            "POSITION": 6,
            "TANGENT": 8,
            "TEXCOORD_0": 9
          },
          "indices": 5,
          "material": 2,
          "mode": 4
        }
      ]
    },
    {
      "name": "GEO_Mountain_003",
      "primitives": [
        {
          "attributes": {
            "NORMAL": 12,
            "POSITION": 11,
            "TANGENT": 13,
            "TEXCOORD_0": 14
          },
          "indices": 10,
          "material": 3,
          "mode": 4
        }
      ]
    },
    {
      "name": "GEO_Mountain_001",
      "primitives": [
        {
          "attributes": {
            "NORMAL": 17,
            "POSITION": 16,
            "TANGENT": 18,
            "TEXCOORD_0": 19
          },
          "indices": 15,
          "material": 1,
          "mode": 4
        }
      ]
    }
  ],
  "nodes": [
    {
      "children": [
        1,
        3,
        5,
        7
      ],
      "name": "RootNode",
      "scale": [
        0.00999999977648258,
        0.00999999977648258,
        0.00999999977648258
      ]
    },
    {
      "children": [
        2
      ],
      "name": "GEO_Ground_001"
    },
    {
      "mesh": 0,
      "name": "GEO_Ground_001"
    },
    {
      "children": [
        4
      ],
      "name": "GEO_Mountain_002"
    },
    {
      "mesh": 1,
      "name": "GEO_Mountain_002"
    },
    {
      "children": [
        6
      ],
      "name": "GEO_Mountain_003"
    },
    {
      "mesh": 2,
      "name": "GEO_Mountain_003"
    },
    {
      "children": [
        8
      ],
      "name": "GEO_Mountain_001"
    },
    {
      "mesh": 3,
      "name": "GEO_Mountain_001"
    }
  ],
  "samplers": [
    {
      "magFilter": 9729,
      "minFilter": 9985,
      "wrapS": 10497,
      "wrapT": 10497
    }
  ],
  "scene": 0,
  "scenes": [
    {
      "name": "Scene",
      "nodes": [
        0
      ]
    }
  ],
  "textures": [
    {
      "sampler": 0,
      "source": 0
    },
    {
      "sampler": 0,
      "source": 1
    },
    {
      "sampler": 0,
      "source": 2
    },
    {
      "sampler": 0,
      "source": 3
    },
    {
      "sampler": 0,
      "source": 4
    },
    {
      "sampler": 0,
      "source": 5
    },
    {
      "sampler": 0,
      "source": 6
    },
    {
      "sampler": 0,
      "source": 7
    },
    {
      "sampler": 0,
      "source": 8
    },
    {
      "sampler": 0,
      "source": 9
    },
    {
      "sampler": 0,
      "source": 10
    },
    {
      "sampler": 0,
      "source": 11
    }
  ]
}